<?xml version="1.0" encoding="UTF-8"?>
<!DOCTYPE svg PUBLIC "-//W3C//DTD SVG 1.1//EN" "http://www.w3.org/Graphics/SVG/1.1/DTD/svg11.dtd">
<svg xmlns="http://www.w3.org/2000/svg" version="1.1" width="32px" height="32px" style="shape-rendering:geometricPrecision; text-rendering:geometricPrecision; image-rendering:optimizeQuality; fill-rule:evenodd; clip-rule:evenodd" xmlns:xlink="http://www.w3.org/1999/xlink">
<g><path style="opacity:0.833" fill="#4aadd4" d="M 14.5,0.5 C 16.0269,0.427017 17.0269,1.09368 17.5,2.5C 17.5,2.83333 17.5,3.16667 17.5,3.5C 16.609,4.10978 15.609,4.44312 14.5,4.5C 15.8499,3.17648 15.6833,2.17648 14,1.5C 12.5405,1.80822 11.3739,2.47489 10.5,3.5C 9.83333,3.5 9.16667,3.5 8.5,3.5C 9.6874,1.02458 11.6874,0.0245822 14.5,0.5 Z"/></g>
<g><path style="opacity:1" fill="#93aba0" d="M 14.5,0.5 C 14.5,0.166667 14.5,-0.166667 14.5,-0.5C 15.5,-0.5 16.5,-0.5 17.5,-0.5C 18.209,0.403972 19.209,0.737305 20.5,0.5C 20.1788,2.04814 19.1788,2.71481 17.5,2.5C 17.0269,1.09368 16.0269,0.427017 14.5,0.5 Z"/></g>
<g><path style="opacity:1" fill="#a6bfb3" d="M 20.5,0.5 C 21.1667,0.5 21.8333,0.5 22.5,0.5C 22.631,1.23891 22.4643,1.90558 22,2.5C 20.6976,3.0848 19.531,3.75147 18.5,4.5C 18.1667,4.5 17.8333,4.5 17.5,4.5C 17.5,4.16667 17.5,3.83333 17.5,3.5C 17.5,3.16667 17.5,2.83333 17.5,2.5C 19.1788,2.71481 20.1788,2.04814 20.5,0.5 Z"/></g>
<g><path style="opacity:1" fill="#97a392" d="M 22.5,-0.5 C 22.8333,-0.5 23.1667,-0.5 23.5,-0.5C 23.3284,0.491622 23.6618,1.15829 24.5,1.5C 24.5,2.5 24.5,3.5 24.5,4.5C 22.5,4.5 20.5,4.5 18.5,4.5C 19.531,3.75147 20.6976,3.0848 22,2.5C 22.4643,1.90558 22.631,1.23891 22.5,0.5C 22.5,0.166667 22.5,-0.166667 22.5,-0.5 Z"/></g>
<g><path style="opacity:1" fill="#122835" d="M 8.5,3.5 C 9.16667,3.5 9.83333,3.5 10.5,3.5C 10.5,4.16667 10.5,4.83333 10.5,5.5C 8.97306,5.42702 7.97306,6.09368 7.5,7.5C 6.79405,8.55728 6.46072,8.22394 6.5,6.5C 6.42702,4.97306 7.09368,3.97306 8.5,3.5 Z"/></g>
<g><path style="opacity:1" fill="#a7e2e9" d="M 14.5,4.5 C 13.5655,5.56764 13.2322,6.90097 13.5,8.5C 13.1667,8.5 12.8333,8.5 12.5,8.5C 11.8333,8.5 11.5,8.16667 11.5,7.5C 11.6716,6.50838 11.3382,5.84171 10.5,5.5C 10.5,4.83333 10.5,4.16667 10.5,3.5C 11.3739,2.47489 12.5405,1.80822 14,1.5C 15.6833,2.17648 15.8499,3.17648 14.5,4.5 Z"/></g>
<g><path style="opacity:1" fill="#7e7866" d="M 24.5,1.5 C 25.8799,1.96227 26.5466,2.96227 26.5,4.5C 26.1543,5.84918 25.821,7.18252 25.5,8.5C 24.8333,9.16667 24.1667,9.83333 23.5,10.5C 23.7845,8.58533 23.4511,6.91866 22.5,5.5C 20.8333,5.5 19.1667,5.5 17.5,5.5C 17.5,5.16667 17.5,4.83333 17.5,4.5C 17.8333,4.5 18.1667,4.5 18.5,4.5C 20.5,4.5 22.5,4.5 24.5,4.5C 24.5,3.5 24.5,2.5 24.5,1.5 Z"/></g>
<g><path style="opacity:1" fill="#467789" d="M 17.5,3.5 C 17.5,3.83333 17.5,4.16667 17.5,4.5C 17.5,4.83333 17.5,5.16667 17.5,5.5C 17.5,6.5 17.5,7.5 17.5,8.5C 16.1667,7.16667 14.8333,7.16667 13.5,8.5C 13.2322,6.90097 13.5655,5.56764 14.5,4.5C 15.609,4.44312 16.609,4.10978 17.5,3.5 Z"/></g>
<g><path style="opacity:1" fill="#734331" d="M 17.5,5.5 C 19.1667,5.5 20.8333,5.5 22.5,5.5C 21.7205,6.92041 20.7205,7.75374 19.5,8C 20.5442,9.1739 21.5442,10.3406 22.5,11.5C 21.5041,11.4142 20.6708,11.7476 20,12.5C 19.2917,11.6195 18.4584,10.9528 17.5,10.5C 17.5,9.83333 17.5,9.16667 17.5,8.5C 17.5,7.5 17.5,6.5 17.5,5.5 Z"/></g>
<g><path style="opacity:1" fill="#488aa2" d="M 11.5,7.5 C 11.5,8.16667 11.8333,8.5 12.5,8.5C 11.375,9.65225 11.375,10.6522 12.5,11.5C 12.5,12.1667 12.5,12.8333 12.5,13.5C 11.8333,13.5 11.1667,13.5 10.5,13.5C 9.55169,11.3279 9.88502,9.32787 11.5,7.5 Z"/></g>
<g><path style="opacity:1" fill="#19242e" d="M 17.5,8.5 C 17.5,9.16667 17.5,9.83333 17.5,10.5C 15.9018,10.6097 14.2352,10.943 12.5,11.5C 11.375,10.6522 11.375,9.65225 12.5,8.5C 12.8333,8.5 13.1667,8.5 13.5,8.5C 14.8333,7.16667 16.1667,7.16667 17.5,8.5 Z"/></g>
<g><path style="opacity:1" fill="#9b7555" d="M 22.5,5.5 C 23.4511,6.91866 23.7845,8.58533 23.5,10.5C 23.5,11.5 23.5,12.5 23.5,13.5C 23.1667,13.5 22.8333,13.5 22.5,13.5C 22.5,12.8333 22.5,12.1667 22.5,11.5C 21.5442,10.3406 20.5442,9.1739 19.5,8C 20.7205,7.75374 21.7205,6.92041 22.5,5.5 Z"/></g>
<g><path style="opacity:1" fill="#417e97" d="M 6.5,6.5 C 6.46072,8.22394 6.79405,8.55728 7.5,7.5C 9.74479,8.29194 10.0781,9.62527 8.5,11.5C 7.5,11.5 6.5,11.5 5.5,11.5C 5.21552,9.58533 5.54885,7.91866 6.5,6.5 Z"/></g>
<g><path style="opacity:1" fill="#254857" d="M 10.5,5.5 C 11.3382,5.84171 11.6716,6.50838 11.5,7.5C 9.88502,9.32787 9.55169,11.3279 10.5,13.5C 9.83333,13.5 9.16667,13.5 8.5,13.5C 8.5,12.8333 8.5,12.1667 8.5,11.5C 10.0781,9.62527 9.74479,8.29194 7.5,7.5C 7.97306,6.09368 8.97306,5.42702 10.5,5.5 Z"/></g>
<g><path style="opacity:1" fill="#5a462f" d="M 25.5,8.5 C 25.8016,11.0593 25.4682,13.3926 24.5,15.5C 24.1667,14.8333 23.8333,14.1667 23.5,13.5C 23.5,12.5 23.5,11.5 23.5,10.5C 24.1667,9.83333 24.8333,9.16667 25.5,8.5 Z"/></g>
<g><path style="opacity:1" fill="#25425d" d="M 17.5,10.5 C 17.4431,11.609 17.1098,12.609 16.5,13.5C 15.609,14.1098 14.609,14.4431 13.5,14.5C 13.5,13.8333 13.1667,13.5 12.5,13.5C 12.5,12.8333 12.5,12.1667 12.5,11.5C 14.2352,10.943 15.9018,10.6097 17.5,10.5 Z"/></g>
<g><path style="opacity:0.204" fill="#0b2c3f" d="M 5.5,11.5 C 6.5,11.5 7.5,11.5 8.5,11.5C 8.5,12.1667 8.5,12.8333 8.5,13.5C 8.5,13.8333 8.5,14.1667 8.5,14.5C 8.5,14.8333 8.5,15.1667 8.5,15.5C 7.60895,14.8902 6.60895,14.5569 5.5,14.5C 5.5,13.5 5.5,12.5 5.5,11.5 Z"/></g>
<g><path style="opacity:1" fill="#a8897e" d="M 17.5,10.5 C 18.4584,10.9528 19.2917,11.6195 20,12.5C 20.6708,11.7476 21.5041,11.4142 22.5,11.5C 22.5,12.1667 22.5,12.8333 22.5,13.5C 22.1667,14.1667 21.8333,14.8333 21.5,15.5C 20.609,14.8902 19.609,14.5569 18.5,14.5C 18.1667,14.5 17.8333,14.5 17.5,14.5C 16.8333,14.5 16.5,14.1667 16.5,13.5C 17.1098,12.609 17.4431,11.609 17.5,10.5 Z"/></g>
<g><path style="opacity:1" fill="#0d1b26" d="M 8.5,14.5 C 8.5,14.1667 8.5,13.8333 8.5,13.5C 9.16667,13.5 9.83333,13.5 10.5,13.5C 11.1667,13.5 11.8333,13.5 12.5,13.5C 13.1667,13.5 13.5,13.8333 13.5,14.5C 12.8902,15.391 12.5569,16.391 12.5,17.5C 11.1667,16.5 9.83333,15.5 8.5,14.5 Z"/></g>
<g><path style="opacity:1" fill="#223a45" d="M 16.5,13.5 C 16.5,14.1667 16.8333,14.5 17.5,14.5C 17.5,16.5 17.5,18.5 17.5,20.5C 17.5,20.8333 17.5,21.1667 17.5,21.5C 16.609,22.1098 15.609,22.4431 14.5,22.5C 14.1667,21.8333 13.8333,21.1667 13.5,20.5C 13.4431,19.391 13.1098,18.391 12.5,17.5C 12.5569,16.391 12.8902,15.391 13.5,14.5C 14.609,14.4431 15.609,14.1098 16.5,13.5 Z"/></g>
<g><path style="opacity:1" fill="#99634e" d="M 18.5,14.5 C 19.609,14.5569 20.609,14.8902 21.5,15.5C 21.5,16.5 21.5,17.5 21.5,18.5C 21.1667,18.5 20.8333,18.5 20.5,18.5C 18.8235,17.8166 18.1568,16.4832 18.5,14.5 Z"/></g>
<g><path style="opacity:0.184" fill="#3f5f6e" d="M 5.5,15.5 C 5.5,15.1667 5.5,14.8333 5.5,14.5C 6.60895,14.5569 7.60895,14.8902 8.5,15.5C 7.52909,16.9621 7.86242,18.2954 9.5,19.5C 8.5,19.5 7.5,19.5 6.5,19.5C 6.76781,17.901 6.43448,16.5676 5.5,15.5 Z"/></g>
<g><path style="opacity:1" fill="#0e3953" d="M 8.5,14.5 C 9.83333,15.5 11.1667,16.5 12.5,17.5C 13.1098,18.391 13.4431,19.391 13.5,20.5C 12.2921,19.7659 10.9587,19.4326 9.5,19.5C 7.86242,18.2954 7.52909,16.9621 8.5,15.5C 8.5,15.1667 8.5,14.8333 8.5,14.5 Z"/></g>
<g><path style="opacity:1" fill="#663c34" d="M 17.5,14.5 C 17.8333,14.5 18.1667,14.5 18.5,14.5C 18.1568,16.4832 18.8235,17.8166 20.5,18.5C 20.0269,19.9063 19.0269,20.573 17.5,20.5C 17.5,18.5 17.5,16.5 17.5,14.5 Z"/></g>
<g><path style="opacity:0.616" fill="#9a5537" d="M 22.5,13.5 C 22.8333,13.5 23.1667,13.5 23.5,13.5C 23.8333,14.1667 24.1667,14.8333 24.5,15.5C 24.3713,17.2161 24.038,18.8828 23.5,20.5C 22.1667,20.5 21.5,19.8333 21.5,18.5C 21.5,17.5 21.5,16.5 21.5,15.5C 21.8333,14.8333 22.1667,14.1667 22.5,13.5 Z"/></g>
<g><path style="opacity:0.482" fill="#1d222d" d="M 5.5,15.5 C 6.43448,16.5676 6.76781,17.901 6.5,19.5C 7.40536,20.7024 7.40536,22.0357 6.5,23.5C 5.83333,23.5 5.5,23.1667 5.5,22.5C 4.37734,20.0213 4.37734,17.688 5.5,15.5 Z"/></g>
<g><path style="opacity:1" fill="#3a2d39" d="M 6.5,19.5 C 7.5,19.5 8.5,19.5 9.5,19.5C 9.5,20.8333 9.5,22.1667 9.5,23.5C 8.5,23.5 7.5,23.5 6.5,23.5C 7.40536,22.0357 7.40536,20.7024 6.5,19.5 Z"/></g>
<g><path style="opacity:1" fill="#102e44" d="M 9.5,19.5 C 10.9587,19.4326 12.2921,19.7659 13.5,20.5C 13.8333,21.1667 14.1667,21.8333 14.5,22.5C 12.7085,22.366 11.0418,22.6993 9.5,23.5C 9.5,22.1667 9.5,20.8333 9.5,19.5 Z"/></g>
<g><path style="opacity:0.627" fill="#804b30" d="M 20.5,18.5 C 20.8333,18.5 21.1667,18.5 21.5,18.5C 21.5,19.8333 22.1667,20.5 23.5,20.5C 23.1667,21.1667 22.8333,21.8333 22.5,22.5C 22.1667,22.5 21.8333,22.5 21.5,22.5C 20.5,22.5 19.5,22.5 18.5,22.5C 18.1667,22.5 17.8333,22.5 17.5,22.5C 17.5,22.1667 17.5,21.8333 17.5,21.5C 17.5,21.1667 17.5,20.8333 17.5,20.5C 19.0269,20.573 20.0269,19.9063 20.5,18.5 Z"/></g>
<g><path style="opacity:0.757" fill="#355b70" d="M 5.5,22.5 C 5.5,23.1667 5.83333,23.5 6.5,23.5C 7.5,23.5 8.5,23.5 9.5,23.5C 9.5,24.1667 9.5,24.8333 9.5,25.5C 8.83333,25.5 8.5,25.8333 8.5,26.5C 7.83333,26.8333 7.16667,27.1667 6.5,27.5C 5.00109,26.506 3.33442,26.506 1.5,27.5C 2.60398,25.6115 3.93731,23.9448 5.5,22.5 Z"/></g>
<g><path style="opacity:1" fill="#0d181e" d="M 17.5,21.5 C 17.5,21.8333 17.5,22.1667 17.5,22.5C 17.6309,23.3764 17.2975,24.0431 16.5,24.5C 15.2638,23.7542 13.9305,23.4208 12.5,23.5C 12.5,24.8333 12.5,26.1667 12.5,27.5C 12.1667,27.5 11.8333,27.5 11.5,27.5C 11.5,26.1667 10.8333,25.5 9.5,25.5C 9.5,24.8333 9.5,24.1667 9.5,23.5C 11.0418,22.6993 12.7085,22.366 14.5,22.5C 15.609,22.4431 16.609,22.1098 17.5,21.5 Z"/></g>
<g><path style="opacity:1" fill="#0c0907" d="M 17.5,22.5 C 17.8333,22.5 18.1667,22.5 18.5,22.5C 18.7148,24.1788 18.0481,25.1788 16.5,25.5C 15.9779,27.2191 14.9779,28.5525 13.5,29.5C 13.1667,28.8333 12.8333,28.1667 12.5,27.5C 12.5,26.1667 12.5,24.8333 12.5,23.5C 13.9305,23.4208 15.2638,23.7542 16.5,24.5C 17.2975,24.0431 17.6309,23.3764 17.5,22.5 Z"/></g>
<g><path style="opacity:1" fill="#0e191f" d="M 8.5,26.5 C 8.5,27.8333 8.5,29.1667 8.5,30.5C 7.5,30.5 6.5,30.5 5.5,30.5C 5.26269,29.209 5.59603,28.209 6.5,27.5C 7.16667,27.1667 7.83333,26.8333 8.5,26.5 Z"/></g>
<g><path style="opacity:1" fill="#1d3740" d="M 9.5,25.5 C 10.8333,25.5 11.5,26.1667 11.5,27.5C 10.8902,28.391 10.5569,29.391 10.5,30.5C 9.83333,30.5 9.16667,30.5 8.5,30.5C 8.5,29.1667 8.5,27.8333 8.5,26.5C 8.5,25.8333 8.83333,25.5 9.5,25.5 Z"/></g>
<g><path style="opacity:1" fill="#472b1f" d="M 18.5,22.5 C 19.5,22.5 20.5,22.5 21.5,22.5C 20.5849,24.7541 19.2516,26.7541 17.5,28.5C 17.1667,28.5 16.8333,28.5 16.5,28.5C 16.5,27.5 16.5,26.5 16.5,25.5C 18.0481,25.1788 18.7148,24.1788 18.5,22.5 Z"/></g>
<g><path style="opacity:1" fill="#9ebdc6" d="M 21.5,22.5 C 21.8333,22.5 22.1667,22.5 22.5,22.5C 22.5,24.1667 22.5,25.8333 22.5,27.5C 22.5,28.8333 22.5,30.1667 22.5,31.5C 21.8333,31.5 21.1667,31.5 20.5,31.5C 20.1667,30.5 19.5,29.8333 18.5,29.5C 18.5,28.8333 18.1667,28.5 17.5,28.5C 19.2516,26.7541 20.5849,24.7541 21.5,22.5 Z"/></g>
<g><path style="opacity:1" fill="#152029" d="M 22.5,22.5 C 24.1911,23.8637 25.8577,25.197 27.5,26.5C 27.1667,26.5 26.8333,26.5 26.5,26.5C 25.1667,26.8333 23.8333,27.1667 22.5,27.5C 22.5,25.8333 22.5,24.1667 22.5,22.5 Z"/></g>
<g><path style="opacity:1" fill="#4aa8cc" d="M 6.5,27.5 C 5.59603,28.209 5.26269,29.209 5.5,30.5C 6.5,30.5 7.5,30.5 8.5,30.5C 9.16667,30.5 9.83333,30.5 10.5,30.5C 10.5,30.8333 10.5,31.1667 10.5,31.5C 7.83333,31.5 5.16667,31.5 2.5,31.5C 2.64945,30.448 2.48278,29.448 2,28.5C 1.32924,29.2524 0.495904,29.5858 -0.5,29.5C -0.5,29.1667 -0.5,28.8333 -0.5,28.5C 0.166667,28.1667 0.833333,27.8333 1.5,27.5C 3.33442,26.506 5.00109,26.506 6.5,27.5 Z"/></g>
<g><path style="opacity:1" fill="#12242a" d="M 11.5,27.5 C 11.8333,27.5 12.1667,27.5 12.5,27.5C 12.8333,28.1667 13.1667,28.8333 13.5,29.5C 13.5,30.1667 13.5,30.8333 13.5,31.5C 12.5,31.5 11.5,31.5 10.5,31.5C 10.5,31.1667 10.5,30.8333 10.5,30.5C 10.5569,29.391 10.8902,28.391 11.5,27.5 Z"/></g>
<g><path style="opacity:1" fill="#305d6c" d="M 2.5,31.5 C 1.5,31.5 0.5,31.5 -0.5,31.5C -0.5,30.8333 -0.5,30.1667 -0.5,29.5C 0.495904,29.5858 1.32924,29.2524 2,28.5C 2.48278,29.448 2.64945,30.448 2.5,31.5 Z"/></g>
<g><path style="opacity:1" fill="#0c1213" d="M 16.5,25.5 C 16.5,26.5 16.5,27.5 16.5,28.5C 16.5,29.5 16.5,30.5 16.5,31.5C 15.5,31.5 14.5,31.5 13.5,31.5C 13.5,30.8333 13.5,30.1667 13.5,29.5C 14.9779,28.5525 15.9779,27.2191 16.5,25.5 Z"/></g>
<g><path style="opacity:1" fill="#896e25" d="M 16.5,28.5 C 16.8333,28.5 17.1667,28.5 17.5,28.5C 18.1667,28.5 18.5,28.8333 18.5,29.5C 18.1667,30.1667 17.8333,30.8333 17.5,31.5C 17.1667,31.5 16.8333,31.5 16.5,31.5C 16.5,30.5 16.5,29.5 16.5,28.5 Z"/></g>
<g><path style="opacity:1" fill="#0c1922" d="M 26.5,26.5 C 27.8333,28.1667 27.8333,29.8333 26.5,31.5C 25.1667,31.5 23.8333,31.5 22.5,31.5C 22.5,30.1667 22.5,28.8333 22.5,27.5C 23.8333,27.1667 25.1667,26.8333 26.5,26.5 Z"/></g>
<g><path style="opacity:0.998" fill="#041623" d="M 26.5,26.5 C 26.8333,26.5 27.1667,26.5 27.5,26.5C 28.8333,26.8333 30.1667,27.1667 31.5,27.5C 31.5,28.8333 31.5,30.1667 31.5,31.5C 29.8333,31.5 28.1667,31.5 26.5,31.5C 27.8333,29.8333 27.8333,28.1667 26.5,26.5 Z"/></g>
<g><path style="opacity:1" fill="#4c483d" d="M 18.5,29.5 C 19.5,29.8333 20.1667,30.5 20.5,31.5C 19.5,31.5 18.5,31.5 17.5,31.5C 17.8333,30.8333 18.1667,30.1667 18.5,29.5 Z"/></g>
</svg>
